<?xml version="1.0" encoding="utf-8"?>
<!-- Generator: Adobe Illustrator 23.0.1, SVG Export Plug-In . SVG Version: 6.00 Build 0)  -->
<svg version="1.1" id="Lager_1" xmlns="http://www.w3.org/2000/svg" xmlns:xlink="http://www.w3.org/1999/xlink" x="0px" y="0px"
	 viewBox="0 0 113 113" style="enable-background:new 0 0 113 113;" xml:space="preserve">
<style type="text/css">
	.st0{fill:#BCDEEF;}
	.st1{fill:#92B5CB;}
	.st2{fill:none;stroke:#545454;stroke-width:3;stroke-miterlimit:10;}
	.st3{fill:#1C7C21;stroke:#1C7C21;stroke-width:4;stroke-miterlimit:10;}
</style>
<g>
	<circle class="st0" cx="56.5" cy="56.5" r="54"/>
	<g>
		<path class="st1" d="M56.5,5C84.9,5,108,28.1,108,56.5S84.9,108,56.5,108S5,84.9,5,56.5S28.1,5,56.5,5 M56.5,0
			C25.3,0,0,25.3,0,56.5S25.3,113,56.5,113S113,87.7,113,56.5S87.7,0,56.5,0L56.5,0z"/>
	</g>
</g>
<path class="st2" d="M69.39,26"/>
<g>
	<polygon class="st3" points="48,75.65 30.28,55.51 33.22,52.18 50.93,72.32 	"/>
	<polygon class="st3" points="48.13,75.88 83.49,40.09 80.76,36.59 45.4,72.38 	"/>
</g>
</svg>
