<?xml version="1.0" encoding="utf-8"?>
<!-- Generator: Adobe Illustrator 23.0.1, SVG Export Plug-In . SVG Version: 6.00 Build 0)  -->
<svg version="1.1" id="Lager_1" xmlns="http://www.w3.org/2000/svg" xmlns:xlink="http://www.w3.org/1999/xlink" x="0px" y="0px"
	 viewBox="0 0 113 113" style="enable-background:new 0 0 113 113;" xml:space="preserve">
<style type="text/css">
	.st0{fill:#F3EFBE;}
	.st1{fill:#96886E;}
	.st2{fill:none;stroke:#545454;stroke-width:3;stroke-miterlimit:10;}
	.st3{fill:#545454;}
</style>
<g>
	<circle class="st0" cx="56.71" cy="56.7" r="54"/>
	<g>
		<path class="st1" d="M56.71,5.2c28.4,0,51.5,23.1,51.5,51.5s-23.1,51.5-51.5,51.5s-51.5-23.1-51.5-51.5S28.32,5.2,56.71,5.2
			 M56.71,0.2c-31.2,0-56.5,25.3-56.5,56.5s25.3,56.5,56.5,56.5s56.5-25.3,56.5-56.5S87.92,0.2,56.71,0.2L56.71,0.2z"/>
	</g>
</g>
<path class="st2" d="M69.39,26"/>
<path class="st2" d="M80.75,31.52"/>
<g id="surface1">
	<path class="st3" d="M53.69,30.59c-3.92,0-7.08,3.25-7.08,7.21v0.88h-7.96c-1.11,0-2,0.9-2,2v2h-2v4.02h4.02v30.09
		c0,3.3,2.72,6.02,6.02,6.02h24.07c3.3,0,6.02-2.72,6.02-6.02V46.69h4.02v-4.02h-2v-2c0-1.11-0.9-2-2-2h-7.96V37.8
		c0-3.95-3.16-7.21-7.08-7.21C59.74,30.59,53.69,30.59,53.69,30.59z M53.69,34.73h6.02c1.62,0,2.94,1.31,2.94,3.07v0.88H50.74V37.8
		C50.74,36.05,52.07,34.73,53.69,34.73z M42.66,46.69h10.28c0.25,0.02,0.49,0.06,0.75,0.06h6.02c0.26,0,0.5-0.04,0.75-0.06h10.28
		v30.09c0,1.13-0.88,2-2,2H44.66c-1.13,0-2-0.88-2-2V46.69z M46.66,50.71v24.07h4.02V50.71H46.66z M54.69,50.71v24.07h4.02V50.71
		H54.69z M62.71,50.71v24.07h4.02V50.71H62.71z"/>
</g>
</svg>
