<?xml version="1.0" encoding="utf-8"?>
<!-- Generator: Adobe Illustrator 23.0.1, SVG Export Plug-In . SVG Version: 6.00 Build 0)  -->
<svg version="1.1" id="Lager_1" xmlns="http://www.w3.org/2000/svg" xmlns:xlink="http://www.w3.org/1999/xlink" x="0px" y="0px"
	 viewBox="0 0 113 113" style="enable-background:new 0 0 113 113;" xml:space="preserve">
<style type="text/css">
	.st0{fill:#BCDEEF;}
	.st1{fill:#92B5CB;}
	.st2{fill:none;stroke:#545454;stroke-width:3;stroke-miterlimit:10;}
	.st3{fill:#545454;}
</style>
<g>
	<circle class="st0" cx="56.5" cy="56.5" r="54"/>
	<g>
		<path class="st1" d="M56.5,5C84.9,5,108,28.1,108,56.5S84.9,108,56.5,108S5,84.9,5,56.5S28.1,5,56.5,5 M56.5,0
			C25.3,0,0,25.3,0,56.5S25.3,113,56.5,113S113,87.7,113,56.5S87.7,0,56.5,0L56.5,0z"/>
	</g>
</g>
<path class="st2" d="M69.39,26"/>
<path class="st2" d="M56.99,36.69"/>
<path class="st3" d="M78.63,52.81H43.22l8.52-8.52c0.73-0.73,1.07-1.59,1.07-2.54c0-1.81-1.5-3.69-3.69-3.69
	c-0.98,0-1.83,0.36-2.54,1.07L31.9,53.8c-0.6,0.6-1.22,1.35-1.22,2.7s0.51,1.99,1.19,2.67l14.71,14.7c0.71,0.71,1.57,1.07,2.54,1.07
	c2.19,0,3.69-1.87,3.69-3.69c0-0.95-0.34-1.82-1.07-2.54l-8.52-8.52h35.41c2.04,0,3.69-1.65,3.69-3.69S80.67,52.81,78.63,52.81z"/>
</svg>
