<?xml version="1.0" encoding="utf-8"?>
<!-- Generator: Adobe Illustrator 23.0.1, SVG Export Plug-In . SVG Version: 6.00 Build 0)  -->
<svg version="1.1" id="Lager_1" xmlns="http://www.w3.org/2000/svg" xmlns:xlink="http://www.w3.org/1999/xlink" x="0px" y="0px"
	 viewBox="0 0 113 113" style="enable-background:new 0 0 113 113;" xml:space="preserve">
<style type="text/css">
	.st0{fill:#F3EFBE;}
	.st1{fill:#96886E;}
	.st2{fill:none;stroke:#545454;stroke-width:3;stroke-miterlimit:10;}
	.st3{fill:#545454;}
</style>
<g>
	<circle class="st0" cx="56.5" cy="56.5" r="54"/>
	<g>
		<path class="st1" d="M56.5,5C84.9,5,108,28.1,108,56.5S84.9,108,56.5,108S5,84.9,5,56.5S28.1,5,56.5,5 M56.5,0
			C25.3,0,0,25.3,0,56.5S25.3,113,56.5,113S113,87.7,113,56.5S87.7,0,56.5,0L56.5,0z"/>
	</g>
</g>
<path class="st2" d="M69.39,26"/>
<path class="st3" d="M82.01,52.25H41.19l9.82-9.82c0.84-0.84,1.23-1.84,1.23-2.93c0-2.09-1.73-4.25-4.25-4.25
	c-1.13,0-2.11,0.41-2.93,1.23L28.14,53.39c-0.7,0.7-1.41,1.56-1.41,3.11s0.59,2.3,1.37,3.08l16.95,16.95
	c0.82,0.82,1.81,1.23,2.93,1.23c2.53,0,4.25-2.16,4.25-4.25c0-1.1-0.4-2.1-1.23-2.93l-9.82-9.82h40.82c2.35,0,4.25-1.91,4.25-4.25
	C86.27,54.15,84.36,52.25,82.01,52.25z"/>
</svg>
