<?xml version="1.0" encoding="utf-8"?>
<!-- Generator: Adobe Illustrator 23.0.1, SVG Export Plug-In . SVG Version: 6.00 Build 0)  -->
<svg version="1.1" id="Lager_1" xmlns="http://www.w3.org/2000/svg" xmlns:xlink="http://www.w3.org/1999/xlink" x="0px" y="0px"
	 viewBox="0 0 113.39 113.39" style="enable-background:new 0 0 113.39 113.39;" xml:space="preserve">
<style type="text/css">
	.st0{fill:#F3EFBE;}
	.st1{fill:#96886E;}
	.st2{fill:none;stroke:#545454;stroke-width:3;stroke-miterlimit:10;}
	.st3{fill:none;stroke:#545454;stroke-width:6;stroke-miterlimit:10;}
	.st4{fill:#545454;}
</style>
<g>
	<circle class="st0" cx="58" cy="55" r="43.5"/>
	<path class="st1" d="M58,14c22.61,0,41,18.39,41,41S80.61,96,58,96S17,77.61,17,55S35.39,14,58,14 M58,9C32.59,9,12,29.59,12,55
		s20.59,46,46,46s46-20.59,46-46S83.41,9,58,9L58,9z"/>
</g>
<path class="st2" d="M57.5,35.5"/>
<line class="st3" x1="86" y1="55" x2="29" y2="55"/>
<line class="st3" x1="31" y1="54" x2="49" y2="39"/>
<line class="st3" x1="31.05" y1="55.94" x2="48.95" y2="71.06"/>
<g>
	<g>
		<path class="st4" d="M29.26,58.29c0.32,0,0.32-0.5,0-0.5C28.94,57.79,28.94,58.29,29.26,58.29L29.26,58.29z"/>
	</g>
</g>
<g>
	<g>
		<path class="st4" d="M29.27,52.14c0.32,0,0.32-0.5,0-0.5C28.95,51.64,28.95,52.14,29.27,52.14L29.27,52.14z"/>
	</g>
</g>
<g>
	<g>
		<path class="st4" d="M29.25,52.16c0.32,0,0.32-0.5,0-0.5C28.93,51.66,28.93,52.16,29.25,52.16L29.25,52.16z"/>
	</g>
</g>
<g>
	<g>
		<path class="st4" d="M29.25,52.26c0.32,0,0.32-0.5,0-0.5C28.93,51.76,28.93,52.26,29.25,52.26L29.25,52.26z"/>
	</g>
</g>
<g>
	<g>
		<path class="st4" d="M29.31,52.1c0.32,0,0.32-0.5,0-0.5C28.98,51.6,28.98,52.1,29.31,52.1L29.31,52.1z"/>
	</g>
</g>
<g>
	<g>
		<path class="st4" d="M29.27,52.1c0.32,0,0.32-0.5,0-0.5C28.95,51.6,28.95,52.1,29.27,52.1L29.27,52.1z"/>
	</g>
</g>
</svg>
