<?xml version="1.0" encoding="utf-8"?>
<!-- Generator: Adobe Illustrator 23.0.1, SVG Export Plug-In . SVG Version: 6.00 Build 0)  -->
<svg version="1.1" id="Lager_1" xmlns="http://www.w3.org/2000/svg" xmlns:xlink="http://www.w3.org/1999/xlink" x="0px" y="0px"
	 viewBox="0 0 113.39 113.39" style="enable-background:new 0 0 113.39 113.39;" xml:space="preserve">
<style type="text/css">
	.st0{fill:#BCDEEF;}
	.st1{fill:#92B5CB;}
	.st2{fill:none;stroke:#545454;stroke-width:3;stroke-miterlimit:10;}
	.st3{fill:#545454;}
</style>
<g>
	<circle class="st0" cx="58" cy="55" r="43.5"/>
	<path class="st1" d="M58,14c22.61,0,41,18.39,41,41S80.61,96,58,96S17,77.61,17,55S35.39,14,58,14 M58,9C32.59,9,12,29.59,12,55
		s20.59,46,46,46s46-20.59,46-46S83.41,9,58,9L58,9z"/>
</g>
<path class="st2" d="M57.5,35.5"/>
<g id="surface1">
	<path class="st3" d="M55.12,28.94c-3.76,0-6.79,3.12-6.79,6.91v0.84h-7.63c-1.06,0-1.92,0.86-1.92,1.92v1.92h-1.92v3.85h3.85v28.85
		c0,3.16,2.61,5.77,5.77,5.77h23.08c3.16,0,5.77-2.61,5.77-5.77V44.38h3.85v-3.85h-1.92v-1.92c0-1.06-0.86-1.92-1.92-1.92h-7.63
		v-0.84c0-3.79-3.03-6.91-6.79-6.91H55.12z M55.12,32.91h5.77c1.55,0,2.82,1.26,2.82,2.94v0.84H52.29v-0.84
		C52.29,34.17,53.57,32.91,55.12,32.91z M44.54,44.38h9.86c0.24,0.02,0.47,0.06,0.72,0.06h5.77c0.25,0,0.48-0.04,0.72-0.06h9.86
		v28.85c0,1.08-0.84,1.92-1.92,1.92H46.46c-1.08,0-1.92-0.84-1.92-1.92V44.38z M48.38,48.23v23.08h3.85V48.23H48.38z M56.08,48.23
		v23.08h3.85V48.23H56.08z M63.77,48.23v23.08h3.85V48.23H63.77z"/>
</g>
</svg>
