<?xml version="1.0" encoding="utf-8"?>
<!-- Generator: Adobe Illustrator 23.0.1, SVG Export Plug-In . SVG Version: 6.00 Build 0)  -->
<svg version="1.1" id="Lager_1" xmlns="http://www.w3.org/2000/svg" xmlns:xlink="http://www.w3.org/1999/xlink" x="0px" y="0px"
	 viewBox="0 0 113.39 113.39" style="enable-background:new 0 0 113.39 113.39;" xml:space="preserve">
<style type="text/css">
	.st0{fill:#BCDEEF;}
	.st1{fill:#92B5CB;}
	.st2{fill:none;stroke:#545454;stroke-width:3;stroke-miterlimit:10;}
	.st3{fill:#1C7C21;stroke:#1C7C21;stroke-width:3;stroke-miterlimit:10;}
</style>
<g>
	<circle class="st0" cx="58" cy="55" r="43.5"/>
	<path class="st1" d="M58,14c22.61,0,41,18.39,41,41S80.61,96,58,96S17,77.61,17,55S35.39,14,58,14 M58,9C32.59,9,12,29.59,12,55
		s20.59,46,46,46s46-20.59,46-46S83.41,9,58,9L58,9z"/>
</g>
<path class="st2" d="M57.5,35.5"/>
<g>
	<polygon class="st3" points="50.51,74 35,56.37 37.57,53.45 53.08,71.08 	"/>
	<polygon class="st3" points="50.63,74.2 81.6,42.86 79.2,39.8 48.23,71.14 	"/>
</g>
</svg>
