<?xml version="1.0" encoding="utf-8"?>
<!-- Generator: Adobe Illustrator 23.0.1, SVG Export Plug-In . SVG Version: 6.00 Build 0)  -->
<svg version="1.1" id="Lager_1" xmlns="http://www.w3.org/2000/svg" xmlns:xlink="http://www.w3.org/1999/xlink" x="0px" y="0px"
	 viewBox="0 0 113.39 113.39" style="enable-background:new 0 0 113.39 113.39;" xml:space="preserve">
<style type="text/css">
	.st0{fill:#BCDEEF;}
	.st1{fill:#92B5CB;}
	.st2{fill:none;stroke:#545454;stroke-width:3;stroke-miterlimit:10;}
	.st3{fill:#939393;}
	.st4{fill:#545454;}
</style>
<g>
	<circle class="st0" cx="58" cy="55" r="43.5"/>
	<path class="st1" d="M58,14c22.61,0,41,18.39,41,41S80.61,96,58,96S17,77.61,17,55S35.39,14,58,14 M58,9C32.59,9,12,29.59,12,55
		s20.59,46,46,46s46-20.59,46-46S83.41,9,58,9L58,9z"/>
</g>
<path class="st2" d="M57.5,35.5"/>
<g id="XMLID_2_">
	<g>
		<polygon class="st3" points="72,39 72,42.71 70,41.15 70,39 		"/>
		<rect x="53" y="59" class="st3" width="10" height="17"/>
		<polygon class="st4" points="77,49.15 77,76 65,76 65,57 51,57 51,76 39,76 39,49.15 58,34.32 		"/>
		<path d="M72,42.71V39h-2v2.15L72,42.71z M63,76V59H53v17H63z M65,76h12V49.15L58,34.32L39,49.15V76h12V57h14V76z M68,37h6v7.27
			l7.62,5.94c0.43,0.34,0.51,0.97,0.17,1.41c-0.34,0.43-0.97,0.51-1.41,0.17L79,50.71V77c0,0.55-0.45,1-1,1H64.16
			c-0.11,0.02-0.22,0.02-0.33,0H52.16c-0.11,0.02-0.22,0.02-0.33,0H38c-0.55,0-1-0.45-1-1V50.71l-1.38,1.08
			c-0.44,0.34-1.07,0.26-1.41-0.17c-0.34-0.44-0.26-1.07,0.17-1.41l23-17.95c0.17-0.12,0.37-0.2,0.58-0.21
			c0.24,0,0.47,0.07,0.66,0.21L68,39.59V37z"/>
	</g>
	<g>
	</g>
</g>
</svg>
