<?xml version="1.0" encoding="utf-8"?>
<!-- Generator: Adobe Illustrator 23.0.1, SVG Export Plug-In . SVG Version: 6.00 Build 0)  -->
<svg version="1.1" id="Lager_1" xmlns="http://www.w3.org/2000/svg" xmlns:xlink="http://www.w3.org/1999/xlink" x="0px" y="0px"
	 viewBox="0 0 113 113" style="enable-background:new 0 0 113 113;" xml:space="preserve">
<style type="text/css">
	.st0{fill:#BCDEEF;}
	.st1{fill:#92B5CB;}
	.st2{fill:none;stroke:#545454;stroke-width:3;stroke-miterlimit:10;}
	.st3{fill:#939393;}
	.st4{fill:#545454;}
</style>
<g>
	<circle class="st0" cx="56.5" cy="56.5" r="54"/>
	<g>
		<path class="st1" d="M56.5,5C84.9,5,108,28.1,108,56.5S84.9,108,56.5,108S5,84.9,5,56.5S28.1,5,56.5,5 M56.5,0
			C25.3,0,0,25.3,0,56.5S25.3,113,56.5,113S113,87.7,113,56.5S87.7,0,56.5,0L56.5,0z"/>
	</g>
</g>
<path class="st2" d="M69.39,26"/>
<g id="XMLID_2_">
	<g>
		<polygon class="st3" points="71.87,39.02 71.87,43.15 69.64,41.41 69.64,39.02 		"/>
		<rect x="50.7" y="61.3" class="st3" width="11.14" height="18.94"/>
		<polygon class="st4" points="64.07,59.07 48.47,59.07 48.47,80.24 35.1,80.24 35.1,50.33 56.27,33.8 77.44,50.33 77.44,80.24 
			64.07,80.24 		"/>
		<path d="M71.87,43.15v-4.13h-2.23v2.4L71.87,43.15z M61.84,80.24V61.3H50.7v18.94H61.84z M67.41,36.79h6.68v8.1l8.49,6.62
			c0.48,0.38,0.57,1.08,0.19,1.57c-0.38,0.48-1.08,0.57-1.57,0.19l-1.54-1.2v29.29c0,0.61-0.5,1.11-1.11,1.11H63.13
			c-0.12,0.02-0.25,0.02-0.37,0h-13c-0.12,0.02-0.25,0.02-0.37,0H33.99c-0.61,0-1.11-0.5-1.11-1.11V52.06l-1.54,1.2
			c-0.49,0.38-1.19,0.29-1.57-0.19c-0.38-0.49-0.29-1.19,0.19-1.57l25.63-20c0.19-0.13,0.41-0.22,0.65-0.23
			c0.27,0,0.52,0.08,0.74,0.23l10.45,8.17V36.79z M77.44,50.33L56.27,33.8L35.1,50.33v29.92h13.37V59.07h15.6v21.17h13.37V50.33z"/>
	</g>
	<g>
	</g>
</g>
</svg>
