<?xml version="1.0" encoding="utf-8"?>
<!-- Generator: Adobe Illustrator 23.0.1, SVG Export Plug-In . SVG Version: 6.00 Build 0)  -->
<svg version="1.1" id="Lager_1" xmlns="http://www.w3.org/2000/svg" xmlns:xlink="http://www.w3.org/1999/xlink" x="0px" y="0px"
	 viewBox="0 0 113.39 113.39" style="enable-background:new 0 0 113.39 113.39;" xml:space="preserve">
<style type="text/css">
	.st0{fill:#FFFFFF;}
	.st1{fill:#545454;}
	.st2{fill:none;stroke:#545454;stroke-width:3;stroke-miterlimit:10;}
	.st3{fill:#FFFFFF;stroke:#000000;stroke-miterlimit:10;}
	.st4{fill:#BCDEEF;stroke:#545454;stroke-width:4;stroke-miterlimit:10;}
</style>
<g>
	<circle class="st0" cx="57.5" cy="55.5" r="19.5"/>
	<path class="st1" d="M57.5,38C67.15,38,75,45.85,75,55.5S67.15,73,57.5,73S40,65.15,40,55.5S47.85,38,57.5,38 M57.5,34
		C45.63,34,36,43.63,36,55.5S45.63,77,57.5,77S79,67.37,79,55.5S69.37,34,57.5,34L57.5,34z"/>
</g>
<path class="st2" d="M57.5,35.5"/>
<path class="st3" d="M57.5,55.5c0-3.33,0-6.67,0-10"/>
<path class="st4" d="M57.5,36.5c0-2.33,0-4.67,0-7"/>
</svg>
