<svg xmlns="http://www.w3.org/2000/svg" viewBox="0 0 588.26 150.67"><defs><style>.cls-1{fill:#82b6cd;}.cls-2{fill:#7aa8be;}.cls-3{fill:#fff;}</style></defs><title>berg</title><g id="Layer_4" data-name="Layer 4"><polygon class="cls-1" points="366.29 0 295.79 150.67 436.79 150.67 366.29 0"/><polygon class="cls-2" points="366.29 0 436.79 150.67 366.29 150.67 366.29 0"/><polygon class="cls-1" points="216.39 0 145.89 150.67 286.89 150.67 216.39 0"/><polygon class="cls-2" points="216.39 0 286.89 150.67 216.39 150.67 216.39 0"/><polygon class="cls-1" points="517.76 0 447.26 150.67 588.26 150.67 517.76 0"/><polygon class="cls-2" points="517.76 0 588.26 150.67 517.76 150.67 517.76 0"/><polygon class="cls-1" points="70.5 0 0 150.67 141 150.67 70.5 0"/><polygon class="cls-2" points="70.5 0 141 150.67 70.5 150.67 70.5 0"/></g><g id="Layer_7" data-name="Layer 7"><polygon class="cls-3" points="51.76 40.05 59.74 31.48 58 43.42 66 32 69.5 48.62 74.32 33.67 80.67 43 80.38 31.37 90.17 42.04 70.5 0 51.76 40.05"/><polygon class="cls-3" points="197.68 40.05 205.66 31.48 203.92 43.42 211.92 32 215.42 48.62 220.24 33.67 226.58 43 226.29 31.37 236.09 42.04 216.42 0 197.68 40.05"/><polygon class="cls-3" points="347.58 40.05 355.56 31.48 353.82 43.42 361.82 32 365.32 48.62 370.14 33.67 376.48 43 376.19 31.37 385.99 42.04 366.32 0 347.58 40.05"/><polygon class="cls-3" points="498.98 40.05 506.96 31.48 505.22 43.42 513.22 32 516.72 48.62 521.54 33.67 527.88 43 527.59 31.37 537.39 42.04 517.72 0 498.98 40.05"/></g></svg>