<svg id="Layer_1" data-name="Layer 1" xmlns="http://www.w3.org/2000/svg" viewBox="0 0 841.33 153.11"><defs><style>.cls-1{fill:#82b6cd;}.cls-2{fill:#7aa8be;}.cls-3{fill:#fff;}</style></defs><title>fler_berg</title><polygon class="cls-1" points="212.99 2.44 142.49 153.11 283.49 153.11 212.99 2.44"/><polygon class="cls-2" points="212.99 2.44 283.49 153.11 212.99 153.11 212.99 2.44"/><polygon class="cls-3" points="194.25 42.49 202.23 33.93 200.49 45.86 208.49 34.44 211.99 51.07 216.81 36.11 223.16 45.44 222.87 33.82 232.66 44.48 212.99 2.44 194.25 42.49"/><polygon class="cls-1" points="350.44 2.44 279.94 153.11 420.94 153.11 350.44 2.44"/><polygon class="cls-2" points="350.44 2.44 420.94 153.11 350.44 153.11 350.44 2.44"/><polygon class="cls-3" points="331.73 42.49 339.72 33.93 337.97 45.86 345.97 34.44 349.47 51.07 354.3 36.11 360.64 45.44 360.35 33.82 370.14 44.48 350.47 2.44 331.73 42.49"/><polygon class="cls-1" points="494.55 2.44 424.05 153.11 565.05 153.11 494.55 2.44"/><polygon class="cls-2" points="494.55 2.44 565.05 153.11 494.55 153.11 494.55 2.44"/><polygon class="cls-3" points="475.84 42.49 483.82 33.93 482.08 45.86 490.08 34.44 493.58 51.07 498.4 36.11 504.74 45.44 504.45 33.82 514.25 44.48 494.58 2.44 475.84 42.49"/><polygon class="cls-1" points="638.87 2.44 568.37 153.11 709.37 153.11 638.87 2.44"/><polygon class="cls-2" points="638.87 2.44 709.37 153.11 638.87 153.11 638.87 2.44"/><polygon class="cls-3" points="620.09 42.49 628.07 33.93 626.33 45.86 634.33 34.44 637.83 51.07 642.65 36.11 648.99 45.44 648.7 33.82 658.5 44.48 638.83 2.44 620.09 42.49"/><polygon class="cls-1" points="770.83 2.44 700.33 153.11 841.33 153.11 770.83 2.44"/><polygon class="cls-2" points="770.83 2.44 841.33 153.11 770.83 153.11 770.83 2.44"/><polygon class="cls-3" points="752.05 42.49 760.03 33.93 758.29 45.86 766.29 34.44 769.79 51.07 774.61 36.11 780.96 45.44 780.66 33.82 790.46 44.48 770.79 2.44 752.05 42.49"/><polygon class="cls-1" points="70.5 0 0 150.67 141 150.67 70.5 0"/><polygon class="cls-2" points="70.5 0 141 150.67 70.5 150.67 70.5 0"/><polygon class="cls-3" points="51.72 40.05 59.7 31.48 57.95 43.42 65.95 32 69.45 48.62 74.28 33.67 80.62 43 80.33 31.37 90.13 42.04 70.45 0 51.72 40.05"/></svg>