<svg xmlns="http://www.w3.org/2000/svg" viewBox="0 0 595.28 841.89"><defs><style>.cls-1{fill:#bddded;}.cls-2{fill:#a3bc3d;}.cls-3{fill:#92b5cb;}.cls-4{fill:#88a7bc;}.cls-5{fill:#7f9358;}.cls-6{fill:#87a556;}.cls-7{fill:#99ad45;}.cls-8{fill:#698c53;}.cls-9{fill:#897452;}.cls-10{fill:#fff;}</style></defs><title>homepage</title><g id="himmel"><line class="cls-1" y1="512" y2="411"/><polyline class="cls-1" points="0 411 0 0 595.28 0 595.28 841.89 0 841.89 0 512"/></g><g id="gräs"><polyline class="cls-2" points="0 246.26 0 217.22 595.28 217.22 595.28 841.89 0 841.89 0 246.26"/></g><g id="Layer_4" data-name="Layer 4"><polygon class="cls-3" points="369.02 23.17 298.52 173.84 439.52 173.84 369.02 23.17"/><polygon class="cls-4" points="369.02 23.17 439.52 173.84 369.02 173.84 369.02 23.17"/><polygon class="cls-3" points="219.11 29.51 148.61 180.17 289.61 180.17 219.11 29.51"/><polygon class="cls-4" points="219.11 29.51 289.61 180.17 219.11 180.17 219.11 29.51"/><polygon class="cls-3" points="520.49 23.17 449.99 173.84 590.99 173.84 520.49 23.17"/><polygon class="cls-4" points="520.49 23.17 590.99 173.84 520.49 173.84 520.49 23.17"/><polygon class="cls-3" points="73.22 29.51 2.73 180.17 143.72 180.17 73.22 29.51"/><polygon class="cls-4" points="73.22 29.51 143.72 180.17 73.22 180.17 73.22 29.51"/></g><g id="Layer_5" data-name="Layer 5"><path class="cls-5" d="M595.28,156.81c-24.42-2.84-73.33-5.75-129.59,2.73-115.1,17.36-137.63,11.25-243.91,18.06C78.31,186.79,6.83,180.72,6.83,180.72l4.86,28.95L595.28,219"/><path class="cls-6" d="M0,219.87H568.94l-10-15.14s-70-9.86-107-9.86c-55.44,0-183.45-15.19-183.45-15.19S118.94,158.27,59.94,154.74C37.61,153.4,17,153.07,0,153.19"/></g><g id="Layer_8" data-name="Layer 8"><path class="cls-7" d="M0,226.78H595.28V191.5s-36.87-3.59-93.58,6.46-159.16,13.78-203.18,16.16S0,217.22,0,217.22Z"/></g><g id="Layer_6" data-name="Layer 6"><polygon class="cls-8" points="28.04 222 17.86 259.4 38.21 259.4 28.04 222"/><rect class="cls-9" x="27.04" y="259.07" width="1.48" height="5.83"/><polygon class="cls-8" points="63.58 209.06 58 232.94 69.16 232.94 63.58 209.06"/><rect class="cls-9" x="62.83" y="232.94" width="1.48" height="4.62"/><polygon class="cls-8" points="46.84 209.56 38.21 243.99 55.46 243.99 46.84 209.56"/><rect class="cls-9" x="46.09" y="243.99" width="1.48" height="4.62"/><polygon class="cls-8" points="19.96 208.21 14.53 227.9 25.4 227.9 19.96 208.21"/><rect class="cls-9" x="19.49" y="227.9" width="0.94" height="3.63"/><polygon class="cls-8" points="568.95 227.11 579 265.06 558.89 265.06 568.95 227.11"/><rect class="cls-9" x="568.21" y="265.06" width="1.47" height="5.92" transform="translate(1137.89 536.05) rotate(-180)"/><polygon class="cls-8" points="549.03 214.12 557.55 249.05 540.5 249.05 549.03 214.12"/><rect class="cls-9" x="548.29" y="249.05" width="1.47" height="4.69" transform="translate(1098.05 502.78) rotate(-180)"/><polygon class="cls-8" points="578.33 208.83 584.5 229.81 572.17 229.81 578.33 208.83"/><rect class="cls-9" x="577.8" y="229.81" width="1.07" height="3.87" transform="translate(1156.67 463.48) rotate(-180)"/><polygon class="cls-8" points="532.49 208.25 526.97 232.48 538 232.48 532.49 208.25"/><rect class="cls-9" x="531.75" y="232.48" width="1.47" height="4.69"/><polygon class="cls-8" points="8.71 221 0.52 247.22 16.91 247.22 8.71 221"/><rect class="cls-9" x="8" y="247.22" width="1.42" height="4.83"/><polygon class="cls-8" points="587.08 224.45 578.89 250.67 595.28 250.67 587.08 224.45"/><rect class="cls-9" x="586.37" y="250.67" width="1.42" height="4.83"/></g><g id="Layer_7" data-name="Layer 7"><polygon class="cls-10" points="54.49 69.56 62.47 60.99 60.73 72.92 68.72 61.51 72.22 78.13 77.05 63.17 83.39 72.51 83.1 60.88 92.89 71.54 73.22 29.51 54.49 69.56"/><polygon class="cls-10" points="200.4 69.56 208.38 60.99 206.64 72.92 214.64 61.51 218.14 78.13 222.96 63.17 229.31 72.51 229.02 60.88 238.81 71.54 219.14 29.51 200.4 69.56"/><polygon class="cls-10" points="350.3 63.22 358.28 54.66 356.54 66.59 364.54 55.17 368.04 71.8 372.86 56.84 379.21 66.17 378.92 54.55 388.71 65.21 369.04 23.17 350.3 63.22"/><polygon class="cls-10" points="501.7 63.22 509.68 54.66 507.94 66.59 515.94 55.17 519.44 71.8 524.26 56.84 530.61 66.17 530.32 54.55 540.11 65.21 520.44 23.17 501.7 63.22"/></g></svg>