<svg xmlns="http://www.w3.org/2000/svg" viewBox="0 0 841.89 595.28"><defs><style>.cls-1{fill:#bddded;}.cls-2{fill:#a3bc3d;}.cls-3{fill:#92b5cb;}.cls-4{fill:#88a7bc;}.cls-5{fill:#fff;}.cls-6{fill:#7f9358;}.cls-7{fill:#87a556;}.cls-8{fill:#99ad45;}.cls-9{fill:#897452;}.cls-10{fill:#698c53;}</style></defs><title>homepagedown</title><g id="Layer_5" data-name="Layer 5"><polyline class="cls-1" points="0 290.61 0 0 841.89 0 841.89 595.28 0 595.28 0 362.02"/></g><g id="Layer_4" data-name="Layer 4"><polyline class="cls-2" points="0 227.81 0 209.9 841.89 209.9 841.89 595.28 0 595.28 0 227.81"/></g><g id="Layer_1" data-name="Layer 1"><polygon class="cls-3" points="212.99 61.67 142.49 212.34 283.49 212.34 212.99 61.67"/><polygon class="cls-4" points="212.99 61.67 283.49 212.34 212.99 212.34 212.99 61.67"/><polygon class="cls-5" points="194.25 101.72 202.23 93.16 200.49 105.09 208.49 93.67 211.99 110.3 216.81 95.34 223.16 104.67 222.87 93.05 232.66 103.71 212.99 61.67 194.25 101.72"/><polygon class="cls-3" points="350.44 61.67 279.94 212.34 420.94 212.34 350.44 61.67"/><polygon class="cls-4" points="350.44 61.67 420.94 212.34 350.44 212.34 350.44 61.67"/><polygon class="cls-5" points="331.73 101.72 339.72 93.16 337.97 105.09 345.97 93.67 349.47 110.3 354.3 95.34 360.64 104.67 360.35 93.05 370.14 103.71 350.47 61.67 331.73 101.72"/><polygon class="cls-3" points="494.55 61.67 424.05 212.34 565.05 212.34 494.55 61.67"/><polygon class="cls-4" points="494.55 61.67 565.05 212.34 494.55 212.34 494.55 61.67"/><polygon class="cls-5" points="475.84 101.72 483.82 93.16 482.08 105.09 490.08 93.67 493.58 110.3 498.4 95.34 504.74 104.67 504.45 93.05 514.25 103.71 494.58 61.67 475.84 101.72"/><polygon class="cls-3" points="638.87 61.67 568.37 212.34 709.37 212.34 638.87 61.67"/><polygon class="cls-4" points="638.87 61.67 709.37 212.34 638.87 212.34 638.87 61.67"/><polygon class="cls-5" points="620.09 101.72 628.07 93.16 626.33 105.09 634.33 93.67 637.83 110.3 642.65 95.34 648.99 104.67 648.7 93.05 658.5 103.71 638.83 61.67 620.09 101.72"/><polygon class="cls-3" points="770.83 59.23 700.33 209.9 841.33 209.9 770.83 59.23"/><polygon class="cls-4" points="770.83 59.23 841.33 209.9 770.83 209.9 770.83 59.23"/><polygon class="cls-5" points="752.05 99.28 760.03 90.71 758.29 102.65 766.29 91.23 769.79 107.85 774.61 92.9 780.96 102.23 780.66 90.6 790.46 101.27 770.79 59.23 752.05 99.28"/><polygon class="cls-3" points="70.5 59.23 0 209.9 141 209.9 70.5 59.23"/><polygon class="cls-4" points="70.5 59.23 141 209.9 70.5 209.9 70.5 59.23"/><polygon class="cls-5" points="51.72 99.28 59.7 90.71 57.95 102.65 65.95 91.23 69.45 107.85 74.28 92.9 80.62 102.23 80.33 90.6 90.13 101.27 70.45 59.23 51.72 99.28"/></g><g id="Layer_2" data-name="Layer 2"><path class="cls-6" d="M841.89,176.74c-34.53-2.84-103.68-5.76-183.22,2.73C496,196.82,464.1,190.71,313.86,197.52,111,206.72,10,200.65,10,200.65l6.88,28.94,825.06,9.33"/><path class="cls-7" d="M0,239.8H804.35l-14.11-15.14s-99-9.86-151.3-9.86c-78.38,0-259.37-15.2-259.37-15.2S168.16,178.2,84.75,174.66C53.17,173.32,24,173,0,173.11"/><path class="cls-8" d="M0,246.7H841.89V211.43s-52.15-3.59-132.34,6.45S484.44,231.66,422.19,234,0,237.14,0,237.14Z"/></g><g id="Layer_3" data-name="Layer 3"><rect class="cls-9" x="37.26" y="294.03" width="2.1" height="8.21"/><polygon class="cls-10" points="38.68 241.84 24.26 294.51 53.09 294.51 38.68 241.84"/><polygon class="cls-10" points="89.02 223.62 81.12 257.24 96.93 257.24 89.02 223.62"/><rect class="cls-9" x="87.97" y="257.24" width="2.1" height="6.51"/><polygon class="cls-10" points="65.31 224.33 53.09 272.81 77.53 272.81 65.31 224.33"/><rect class="cls-9" x="64.26" y="272.81" width="2.1" height="6.51"/><polygon class="cls-10" points="27.24 222.43 19.54 250.15 34.94 250.15 27.24 222.43"/><rect class="cls-9" x="26.57" y="250.15" width="1.34" height="5.11"/><polygon class="cls-10" points="12.31 240.43 0.69 277.35 23.92 277.35 12.31 240.43"/><rect class="cls-9" x="11.3" y="277.35" width="2.02" height="6.81"/><polygon class="cls-10" points="804.91 249.04 819.16 302.48 790.67 302.48 804.91 249.04"/><rect class="cls-9" x="803.88" y="302.48" width="2.08" height="8.33" transform="translate(1609.83 613.29) rotate(-180)"/><polygon class="cls-10" points="776.7 230.74 788.77 279.93 764.63 279.93 776.7 230.74"/><rect class="cls-9" x="775.66" y="279.93" width="2.08" height="6.6" transform="translate(1553.4 566.46) rotate(-180)"/><polygon class="cls-10" points="818.22 223.29 826.95 252.83 809.48 252.83 818.22 223.29"/><rect class="cls-9" x="817.46" y="252.83" width="1.52" height="5.44" transform="translate(1636.43 511.11) rotate(-180)"/><polygon class="cls-10" points="753.27 222.48 745.46 256.6 761.08 256.6 753.27 222.48"/><rect class="cls-9" x="752.23" y="256.59" width="2.08" height="6.6"/><polygon class="cls-10" points="829.61 245.29 818 282.21 841.22 282.21 829.61 245.29"/><rect class="cls-9" x="828.6" y="282.21" width="2.02" height="6.81"/></g></svg>