<?xml version="1.0" ?><!DOCTYPE svg  PUBLIC '-//W3C//DTD SVG 1.1//EN'  'http://www.w3.org/Graphics/SVG/1.1/DTD/svg11.dtd'><svg enable-background="new 0 0 24 24" height="24px" id="Layer_1" version="1.1" viewBox="0 0 24 24" width="24px" xml:space="preserve" xmlns="http://www.w3.org/2000/svg" xmlns:xlink="http://www.w3.org/1999/xlink"><g><path d="M22.9,1H18c0-0.6-0.4-1-1-1s-1,0.4-1,1H8c0-0.6-0.4-1-1-1S6,0.4,6,1H1.1C0.5,1,0,1.5,0,2.1v20.8C0,23.5,0.5,24,1.1,24h21.8   c0.6,0,1.1-0.5,1.1-1.1V2.1C24,1.5,23.5,1,22.9,1z M22,22H2V8h20V22z M22,7H2V3h4v1c0,0.6,0.4,1,1,1s1-0.4,1-1V3h8v1   c0,0.6,0.4,1,1,1s1-0.4,1-1V3h4V7z"/><path d="M10.3,17.7c0.4,0.4,1,0.4,1.4,0l4.1-4.1c0.4-0.4,0.4-1,0-1.4c-0.4-0.4-1-0.4-1.4,0L11,15.7l-1.4-1.4c-0.4-0.4-1-0.4-1.4,0   c-0.4,0.4-0.4,1,0,1.4L10.3,17.7z"/></g></svg>