<svg xmlns="http://www.w3.org/2000/svg" viewBox="0 0 595.28 73.61"><defs><style>.cls-1{fill:#779454;}.cls-2{fill:#79a64f;}.cls-3{fill:#91af39;}</style></defs><title>kullar</title><g id="Layer_5" data-name="Layer 5"><path class="cls-1" d="M595.28,156.81c-24.42-2.84-73.33-5.75-129.59,2.73-115.1,17.36-137.63,11.25-243.91,18.06C78.31,186.79,6.83,180.72,6.83,180.72l4.86,28.95L595.28,219" transform="translate(0 -153.16)"/><path class="cls-2" d="M0,219.87H568.94l-10-15.14s-70-9.86-107-9.86c-55.44,0-183.45-15.19-183.45-15.19S118.94,158.27,59.94,154.74C37.61,153.4,17,153.07,0,153.19" transform="translate(0 -153.16)"/></g><g id="Layer_8" data-name="Layer 8"><path class="cls-3" d="M0,226.78H595.28V191.5s-36.87-3.59-93.58,6.46-159.16,13.78-203.18,16.16S0,217.22,0,217.22Z" transform="translate(0 -153.16)"/></g></svg>