<?xml version="1.0" encoding="utf-8"?>
<!-- Generator: Adobe Illustrator 23.0.1, SVG Export Plug-In . SVG Version: 6.00 Build 0)  -->
<svg version="1.1" id="Lager_1" xmlns="http://www.w3.org/2000/svg" xmlns:xlink="http://www.w3.org/1999/xlink" x="0px" y="0px"
	 viewBox="0 0 830 1280" style="enable-background:new 0 0 830 1280;" xml:space="preserve">
<style type="text/css">
	.st0{fill:#545454;}
</style>
<g transform="translate(0.000000,1280.000000) scale(0.100000,-0.100000)">
	<path class="st0" d="M3855,12789c-555-44-1043-176-1530-414C868,11663-45,10152,3,8535c19-605,152-1155,406-1680
		c109-225,183-353,331-575c65-96,856-1369,1760-2827C3403,1994,4146,800,4150,800s747,1194,1650,2652c904,1459,1695,2732,1760,2828
		c148,222,222,350,331,575c421,869,520,1869,279,2821c-244,958-822,1795-1640,2371c-696,491-1551,759-2404,752
		C4032,12798,3910,12794,3855,12789z M4490,11025c440-80,813-271,1120-575c769-761,825-1980,130-2812c-335-402-817-663-1344-728
		c-114-14-378-14-492,0c-853,105-1550,715-1764,1544c-141,545-52,1136,243,1613c330,531,862,876,1497,968
		C4010,11054,4361,11048,4490,11025z"/>
</g>
</svg>
