<svg id="Layer_6" data-name="Layer 6" xmlns="http://www.w3.org/2000/svg" viewBox="0 0 68.31 62.73"><defs><style>.cls-1{fill:#568d4e;}.cls-2{fill:#92754f;}</style></defs><title>trad_h</title><polygon class="cls-1" points="41.97 18.86 52.03 56.81 31.92 56.81 41.97 18.86"/><rect class="cls-2" x="568.21" y="265.06" width="1.47" height="5.92" transform="translate(610.92 327.79) rotate(-180)"/><polygon class="cls-1" points="22.05 5.87 30.58 40.8 13.53 40.8 22.05 5.87"/><rect class="cls-2" x="548.29" y="249.05" width="1.47" height="4.69" transform="translate(571.08 294.53) rotate(-180)"/><polygon class="cls-1" points="51.36 0.58 57.53 21.55 45.2 21.55 51.36 0.58"/><rect class="cls-2" x="577.8" y="229.81" width="1.07" height="3.87" transform="translate(629.7 255.23) rotate(-180)"/><polygon class="cls-1" points="5.51 0 0 24.23 11.03 24.23 5.51 0"/><rect class="cls-2" x="4.78" y="24.23" width="1.47" height="4.69"/><polygon class="cls-1" points="60.11 16.2 51.91 42.42 68.31 42.42 60.11 16.2"/><rect class="cls-2" x="59.4" y="42.42" width="1.42" height="4.83"/></svg>