<svg id="Layer_6" data-name="Layer 6" xmlns="http://www.w3.org/2000/svg" viewBox="0 0 68.64 56.69"><defs><style>.cls-1{fill:#568d4e;}.cls-2{fill:#92754f;}</style></defs><title>trad_v</title><polygon class="cls-1" points="27.52 13.79 17.34 51.19 37.7 51.19 27.52 13.79"/><rect class="cls-2" x="26.52" y="50.85" width="1.48" height="5.83"/><polygon class="cls-1" points="63.06 0.85 57.48 24.73 68.64 24.73 63.06 0.85"/><rect class="cls-2" x="62.32" y="24.73" width="1.48" height="4.62"/><polygon class="cls-1" points="46.32 1.35 37.7 35.78 54.94 35.78 46.32 1.35"/><rect class="cls-2" x="45.58" y="35.78" width="1.48" height="4.62"/><polygon class="cls-1" points="19.45 0 14.01 19.69 24.88 19.69 19.45 0"/><rect class="cls-2" x="18.97" y="19.69" width="0.94" height="3.63"/><polygon class="cls-1" points="8.2 12.79 0 39.01 16.39 39.01 8.2 12.79"/><rect class="cls-2" x="7.49" y="39.01" width="1.42" height="4.83"/></svg>